HIERARCHY
ROOT SpineBase
{
  OFFSET 0.000000 0.000000 0.000000
  CHANNELS 6 Xposition Yposition Zposition Zrotation Xrotation Yrotation
  JOINT SpineMid
  {
    OFFSET -0.000000 26.871258 0.000000
    CHANNELS 3 Zrotation Xrotation Yrotation
    JOINT SpineShoulder
    {
      OFFSET -0.206000 20.047202 -0.536188
      CHANNELS 3 Zrotation Xrotation Yrotation
      JOINT Neck
      {
        OFFSET -0.113004 6.665983 -0.448491
        CHANNELS 3 Zrotation Xrotation Yrotation
        JOINT Head
        {
          OFFSET -2.773558 12.371009 0.383309
          CHANNELS 3 Zrotation Xrotation Yrotation
          End Site
          {
            OFFSET 0 0 0
          }
        }
      }
      JOINT ShoulderLeft
      {
        OFFSET -13.279817 -4.868240 4.024838
        CHANNELS 3 Zrotation Xrotation Yrotation
        JOINT ElbowLeft
        {
          OFFSET -0.777378 -24.433878 1.887123
          CHANNELS 3 Zrotation Xrotation Yrotation
          JOINT WristLeft
          {
            OFFSET -1.013955 -19.989237 -6.006311
            CHANNELS 3 Zrotation Xrotation Yrotation
            JOINT HandLeft
            {
              OFFSET 0.493030 -4.317318 -1.043635
              CHANNELS 3 Zrotation Xrotation Yrotation
              JOINT HandTipLeft
              {
                OFFSET -0.572114 -6.471220 -1.245651
                CHANNELS 3 Zrotation Xrotation Yrotation
                End Site
                {
                  OFFSET 0 0 0
                }
              }
              JOINT ThumbLeft
              {
                OFFSET -2.954360 1.091585 -0.815712
                CHANNELS 3 Zrotation Xrotation Yrotation
                End Site
                {
                  OFFSET 0 0 0
                }
              }
            }
          }
        }
      }
      JOINT ShoulderRight
      {
        OFFSET 10.550361 -2.400320 -7.513155
        CHANNELS 3 Zrotation Xrotation Yrotation
        JOINT ElbowRight
        {
          OFFSET 6.079673 -21.333803 -3.021134
          CHANNELS 3 Zrotation Xrotation Yrotation
          JOINT WristRight
          {
            OFFSET -3.119952 -19.533198 -6.424773
            CHANNELS 3 Zrotation Xrotation Yrotation
            JOINT HandRight
            {
              OFFSET -1.826612 -6.316566 -0.912073
              CHANNELS 3 Zrotation Xrotation Yrotation
              JOINT HandTipRight
              {
                OFFSET -0.823498 -5.621809 -1.870172
                CHANNELS 3 Zrotation Xrotation Yrotation
                End Site
                {
                  OFFSET 0 0 0
                }
              }
              JOINT ThumbRight
              {
                OFFSET -2.583040 0.284370 -1.061557
                CHANNELS 3 Zrotation Xrotation Yrotation
                End Site
                {
                  OFFSET 0 0 0
                }
              }
            }
          }
        }
      }
    }
  }
  JOINT HipLeft
  {
    OFFSET -5.593004 0.144414 -0.785972
    CHANNELS 3 Zrotation Xrotation Yrotation
    JOINT KneeLeft
    {
      OFFSET 3.111351 -29.848971 1.549465
      CHANNELS 3 Zrotation Xrotation Yrotation
      JOINT AnkleLeft
      {
        OFFSET 5.100306 -35.210593 5.560883
        CHANNELS 3 Zrotation Xrotation Yrotation
        JOINT FootLeft
        {
          OFFSET -4.073215 -1.596174 -10.592725
          CHANNELS 3 Zrotation Xrotation Yrotation
          End Site
          {
            OFFSET 0 0 0
          }
        }
      }
    }
  }
  JOINT HipRight
  {
    OFFSET 4.937174 1.459565 -5.285210
    CHANNELS 3 Zrotation Xrotation Yrotation
    JOINT KneeRight
    {
      OFFSET 7.563573 -30.240565 -3.068535
      CHANNELS 3 Zrotation Xrotation Yrotation
      JOINT AnkleRight
      {
        OFFSET 6.218080 -33.278946 3.497666
        CHANNELS 3 Zrotation Xrotation Yrotation
        JOINT FootRight
        {
          OFFSET -3.365187 -2.849044 -8.689853
          CHANNELS 3 Zrotation Xrotation Yrotation
          End Site
          {
            OFFSET 0 0 0
          }
        }
      }
    }
  }
}
MOTION
Frames: 11
Frame Time: 0.033333
39.226307 69.701179 367.525251 3.256052 1.436723 25.399225 0.164738 -0.077500 -25.330930 0.062881 0.001139 0.154078 12.241497 12.771767 0.805959 0.000000 0.000000 0.000000 -2.915378 3.183162 -0.415953 -1.121836 -5.701099 0.254450 6.532407 3.377619 -1.623958 -0.910621 -7.007484 0.914770 0.000000 0.000000 0.000000 0.000000 0.000000 0.000000 -43.631353 82.729764 63.171529 -140.629640 11.133880 -82.250481 21.347307 -16.726788 -29.542098 -58.907510 25.415337 78.167581 0.000000 0.000000 0.000000 0.000000 0.000000 0.000000 -4.282207 0.754275 -25.451017 0.158168 0.631228 0.033308 4.241317 -11.025809 9.735142 0.000000 0.000000 0.000000 -3.028311 0.790978 -25.246802 -0.183799 -0.850343 -0.195625 20.841732 -38.792449 30.852170 0.000000 0.000000 0.000000
39.189734 69.747779 367.533200 3.244238 1.428113 25.376610 0.113662 -0.080273 -25.309695 0.038009 -0.052582 0.150245 11.336759 12.333992 0.873761 0.000000 0.000000 0.000000 -2.902869 3.229020 -0.408927 -0.491368 -4.569152 0.087612 4.398938 1.711255 -0.926749 0.714847 -5.469749 0.476028 0.000000 0.000000 0.000000 0.000000 0.000000 0.000000 -53.707216 80.232705 71.120373 -135.202775 12.128357 -80.475943 9.992405 -15.062558 -24.901444 -51.020730 53.532922 82.037294 0.000000 0.000000 0.000000 0.000000 0.000000 0.000000 -4.125252 0.854014 -25.408324 0.092140 0.346678 -0.005154 3.799389 -9.811643 7.913210 0.000000 0.000000 0.000000 -2.918938 0.812784 -25.217716 -0.261500 -0.909297 -0.203252 18.575331 -37.098602 24.775838 0.000000 0.000000 0.000000
39.148147 69.811202 367.528289 3.236236 1.439373 25.454169 0.035971 -0.078991 -25.389817 -0.002926 -0.080372 0.143929 9.991565 11.491507 0.965793 0.000000 0.000000 0.000000 -2.752813 3.493388 -0.403911 -0.520536 -4.786078 0.090100 5.409614 2.005803 -1.163101 -0.666342 -2.449734 0.286863 0.000000 0.000000 0.000000 0.000000 0.000000 0.000000 -61.537881 76.903316 76.299729 -130.716743 13.200229 -79.579169 -2.608553 -17.042004 -23.125167 -40.391409 65.954089 83.939125 0.000000 0.000000 0.000000 0.000000 0.000000 0.000000 -3.955660 0.945019 -25.465118 0.003972 0.042126 -0.047691 3.189530 -7.978235 5.270044 0.000000 0.000000 0.000000 -2.753322 0.881787 -25.273798 -0.374910 -1.049516 -0.228295 28.363936 -44.794163 35.884030 0.000000 0.000000 0.000000
39.097535 69.906733 367.554430 3.183930 1.402197 25.432497 -0.078463 -0.078974 -25.371534 -0.070665 -0.110266 0.131843 8.391703 10.906323 1.098899 0.000000 0.000000 0.000000 -2.589636 3.667716 -0.387863 -0.460246 -4.845441 0.098897 5.853944 1.380199 -1.317679 -1.416391 -0.593939 0.324943 0.000000 0.000000 0.000000 0.000000 0.000000 0.000000 -66.824278 73.177176 78.773978 -128.839816 13.824382 -80.523658 -12.032040 -19.203119 -22.628105 -15.904076 67.518456 65.046116 0.000000 0.000000 0.000000 0.000000 0.000000 0.000000 -3.754857 1.050326 -25.422933 -0.029221 -0.230200 -0.079480 2.514908 -5.679462 1.879163 0.000000 0.000000 0.000000 -2.601349 0.933444 -25.238839 -0.438023 -1.125114 -0.241741 27.520163 -44.133075 35.610550 0.000000 0.000000 0.000000
39.028380 70.013954 367.608263 3.072534 1.308680 25.273011 -0.213209 -0.078618 -25.216007 -0.164499 -0.154623 0.114180 6.731311 10.712887 1.277376 0.000000 0.000000 0.000000 -2.330357 3.848183 -0.359111 -0.393110 -4.832708 0.106538 6.674291 1.179183 -1.535180 -2.309580 0.232583 0.457476 0.000000 0.000000 0.000000 0.000000 0.000000 0.000000 -70.692460 69.548266 80.026957 -130.460161 14.217014 -84.184428 -15.115945 -25.643373 -28.794312 -14.424567 60.415080 59.640433 0.000000 0.000000 0.000000 0.000000 0.000000 0.000000 -3.533011 1.194457 -25.243227 0.631622 -0.879568 -0.053996 1.284270 -2.722011 -1.898696 0.000000 0.000000 0.000000 -2.313709 1.048578 -25.052233 -0.537910 -1.265739 -0.268566 36.846574 -48.861047 45.683869 0.000000 0.000000 0.000000
38.953532 70.123047 367.680654 2.980983 1.215873 25.006950 -0.285859 -0.076273 -24.952022 -0.253515 -0.185680 0.100114 4.459739 10.351188 1.495336 0.000000 0.000000 0.000000 -2.235562 3.673363 -0.331737 -0.938349 -4.900518 0.286405 8.068597 1.664497 -1.979917 -4.053970 -0.839903 0.900672 0.000000 0.000000 0.000000 0.000000 0.000000 0.000000 -71.594841 66.669418 78.817784 -136.115113 14.983763 -89.783969 -11.480094 -31.785744 -38.533205 -30.729012 56.659711 68.935553 0.000000 0.000000 0.000000 0.000000 0.000000 0.000000 -3.398094 1.320940 -24.964148 0.656107 -0.975955 -0.062021 1.717986 -4.630463 0.706964 0.000000 0.000000 0.000000 -2.072432 1.169391 -24.759896 -0.614955 -1.395755 -0.294965 25.882659 -43.042144 33.894033 0.000000 0.000000 0.000000
38.877548 70.221539 367.764864 2.828717 1.089586 24.676818 -0.449297 -0.058784 -24.627525 -0.371314 -0.225348 0.077329 2.509175 10.255019 1.735419 0.000000 0.000000 0.000000 -1.861804 3.640246 -0.287262 -1.056163 -4.568032 0.321244 8.917570 0.842279 -2.223020 -5.737893 1.938844 1.089377 0.000000 0.000000 0.000000 0.000000 0.000000 0.000000 -70.907629 64.024708 76.366460 -144.313157 16.290435 -98.114041 -4.161210 -27.760930 -33.582124 -38.177972 50.523659 76.996563 0.000000 0.000000 0.000000 0.000000 0.000000 0.000000 -3.221424 1.404061 -24.625137 0.683730 -1.020264 -0.064701 1.726752 -4.613085 0.558484 0.000000 0.000000 0.000000 -1.776894 1.286742 -24.404945 -0.684523 -1.512731 -0.318856 18.030789 -36.401930 25.691855 0.000000 0.000000 0.000000
38.815814 70.284652 367.846634 2.634211 0.926980 24.254895 -0.652404 -0.040431 -24.212718 -0.475498 -0.250186 0.052145 0.971838 10.456678 1.996686 0.000000 0.000000 0.000000 -1.407587 3.670513 -0.238858 -1.122352 -4.168910 0.337229 10.462526 1.180800 -2.551884 -7.854076 1.208656 1.475772 0.000000 0.000000 0.000000 0.000000 0.000000 0.000000 -70.210745 63.366560 75.628406 -146.793033 17.636307 -98.857844 -2.809262 -25.498057 -32.233707 -37.806047 51.018167 76.955486 0.000000 0.000000 0.000000 0.000000 0.000000 0.000000 -3.055444 1.455567 -24.201195 0.748522 -0.998987 -0.058685 1.733087 -4.592603 0.421788 0.000000 0.000000 0.000000 -1.481750 1.411069 -23.960132 -0.712296 -1.600340 -0.338969 10.315649 -26.666967 17.355713 0.000000 0.000000 0.000000
38.756725 70.329151 367.939775 2.354594 0.735882 24.040844 -0.863924 -0.022954 -24.007627 -0.533556 -0.257948 0.026654 -0.548127 10.587764 2.261785 0.000000 0.000000 0.000000 -0.847370 3.515927 -0.179378 -1.311509 -3.684273 0.364564 10.333724 0.358801 -2.542531 -8.002542 4.426748 1.363848 0.000000 0.000000 0.000000 0.000000 0.000000 0.000000 -67.201933 61.235321 71.427663 -149.138970 19.914099 -95.217212 2.271615 -17.005769 -31.180491 -31.834879 42.171797 74.037892 0.000000 0.000000 0.000000 0.000000 0.000000 0.000000 -2.742315 1.591298 -23.974676 0.796935 -1.072496 -0.062892 1.741777 -4.580845 0.295640 0.000000 0.000000 0.000000 -1.073788 1.539387 -23.722322 -0.756770 -1.699474 -0.360663 2.440438 -10.363620 7.224736 0.000000 0.000000 0.000000
38.739720 70.345439 367.983518 2.059143 0.564450 23.545165 -1.021428 -0.009441 -23.520850 -1.126612 -0.147085 -0.033093 -1.615523 10.124433 2.469627 0.000000 0.000000 0.000000 0.028148 3.118130 -0.098029 -1.216774 -3.124748 0.389936 9.763829 0.788544 -2.374420 -7.429674 4.005977 1.154106 0.000000 0.000000 0.000000 0.000000 0.000000 0.000000 -67.796429 57.795423 70.214942 -152.554232 23.234095 -98.650499 9.646363 -3.337301 -23.632894 -24.159179 27.497364 65.184686 0.000000 0.000000 0.000000 0.000000 0.000000 0.000000 -2.544672 1.623848 -23.482177 0.921308 -1.037334 -0.051896 0.943243 -1.823152 -1.822578 0.000000 0.000000 0.000000 -0.794852 1.642234 -23.203262 -0.685338 -1.747920 -0.379277 0.094344 -3.073808 3.647203 0.000000 0.000000 0.000000
38.742779 70.333802 368.003296 1.727212 0.416380 22.821688 -1.753478 0.286217 -22.823584 -0.000000 0.000000 0.000000 -3.928995 9.154730 2.505975 0.000000 0.000000 0.000000 -0.167688 2.710162 -0.095396 -0.646580 -2.747639 0.312062 7.855872 1.307125 -1.867351 -4.658934 2.148972 0.651613 0.000000 0.000000 0.000000 0.000000 0.000000 0.000000 -67.940680 54.332596 67.408053 -155.930465 25.525425 -105.847596 13.264150 4.629564 -19.959439 -23.967067 13.071908 69.177845 0.000000 0.000000 0.000000 0.000000 0.000000 0.000000 -2.362230 1.530632 -22.773096 1.043089 -0.911645 -0.032537 1.999697 -5.225138 0.248756 0.000000 0.000000 0.000000 -0.610177 1.669350 -22.466739 -0.528306 -1.714855 -0.384264 0.945094 -1.961888 -0.585230 0.000000 0.000000 0.000000
